<?xml version="1.0" encoding="utf-8"?>
<!-- Generator: Adobe Illustrator 22.1.0, SVG Export Plug-In . SVG Version: 6.00 Build 0)  -->
<svg version="1.1" id="Layer_1" xmlns="http://www.w3.org/2000/svg" xmlns:xlink="http://www.w3.org/1999/xlink" x="0px" y="0px"
	 viewBox="0 0 132 48" style="enable-background:new 0 0 132 48;" xml:space="preserve">
<style type="text/css">
	.st0{display:none;}
	.st1{display:inline;}
	.st2{fill:#673AB7;}
	.st3{fill:#FFFFFF;}
</style>
<g id="Layer_1_1_" class="st0">
	<title>Group 39</title>
	<desc>Created with Sketch.</desc>
	<g id="Page-1" class="st1">
		<g id="_x30_-homepage" transform="translate(-24.000000, -12.000000)">
			<g id="header">
				<g id="Group-39" transform="translate(24.000000, 12.000000)">
					<g id="Group-6">
						<g id="Group-5">
							<path id="Fill-16" class="st2" d="M47.7,23.9c0,12.9-10.4,23.4-23.3,23.4S1,36.9,1,23.9S11.5,0.5,24.4,0.5S47.7,11,47.7,23.9
								"/>
							<path id="Fill-18" class="st3" d="M28.1,27.3c0,0.5-0.1,0.9-0.2,1.2c-0.1,0.4-0.3,0.7-0.6,0.9c-0.3,0.3-0.6,0.5-1,0.6
								s-0.8,0.2-1.4,0.2h-0.5H24c-0.9,0-1.6-0.2-2.1-0.7s-0.7-1.2-0.7-2.2v-3.9v-3.9c0-0.1,0-0.3,0.1-0.3c0.1-0.1,0.2-0.1,0.3-0.1
								h3h3c0.1,0,0.2,0,0.3,0.1c0.1,0.1,0.1,0.2,0.1,0.3v3.9v3.9H28.1z M34.3,16.1h-2.2h-2.2h-0.1h-0.1c-0.2,0-0.4-0.1-0.5-0.2
								c-0.2-0.1-0.3-0.3-0.4-0.5L26,11.2l-2.6-4.3c-0.1-0.2-0.2-0.3-0.4-0.4c-0.2-0.1-0.4-0.1-0.6-0.1h-1.1h-1.1
								c-0.2,0-0.3,0-0.4,0.1s-0.1,0.2-0.1,0.4c0,0.1,0,0.2,0,0.3c0,0.1,0.1,0.2,0.1,0.3l1,1.5l1,1.5c0.7,1,1.4,2,2.1,2.9
								s1.5,1.8,2.3,2.6h-5.5h-5.5c-0.2,0-0.4,0.1-0.5,0.2s-0.2,0.3-0.2,0.5v0.8v0.8c0,0.2,0.1,0.4,0.2,0.6s0.3,0.2,0.5,0.2h1.1h1.1
								c0.1,0,0.2,0.1,0.2,0.1s0.1,0.2,0.1,0.3v4.1v4.1c0,0.9,0.1,1.6,0.4,2.3c0.3,0.7,0.6,1.3,1.2,1.8c0.5,0.5,1.1,0.9,1.8,1.1
								c0.7,0.3,1.4,0.4,2.3,0.4H24h0.5c0.8,0,1.5-0.1,2.1-0.4c0.6-0.3,1-0.7,1.3-1.2H28h0.1v3.4v3.4c0,0.2,0.1,0.4,0.2,0.5
								s0.3,0.2,0.5,0.2h1h1c0.2,0,0.4-0.1,0.5-0.2c0.1-0.1,0.2-0.3,0.2-0.5V29v-9.5c0-0.1,0-0.3,0.1-0.3c0.1-0.1,0.2-0.1,0.3-0.1
								h1.2h1.2c0.2,0,0.4-0.1,0.5-0.2s0.2-0.3,0.2-0.5v-0.8v-0.8c0-0.2-0.1-0.4-0.2-0.5S34.5,16.1,34.3,16.1z"/>
						</g>
						<g id="Group-4" transform="translate(57.462185, 14.799999)">
							<g id="Group-3">
								<path id="Fill-2" d="M2.6,7.8h3.3c0.9,0,1.6-0.2,2.1-0.7C8.4,6.6,8.7,6,8.7,5.2S8.5,3.8,8,3.3C7.5,2.9,6.9,2.6,5.9,2.6H2.6
									V7.8z M2.6,9.2v5.3H0.9V1.2h5c1.4,0,2.5,0.4,3.3,1.1s1.1,1.7,1.1,2.9S9.9,7.4,9.2,8.1C8.4,8.8,7.3,9.2,5.9,9.2H2.6z"/>
								<path id="Fill-4" d="M14.1,6L14.1,6c0.4-0.5,0.8-0.9,1.3-1.1c0.5-0.3,1-0.4,1.7-0.4c1.1,0,1.9,0.3,2.4,0.9
									C20.1,6,20.3,7,20.3,8.3v6.2h-1.7V8.3c0-0.9-0.2-1.5-0.5-1.9c-0.4-0.4-0.9-0.6-1.6-0.6c-0.5,0-1,0.1-1.4,0.4
									c-0.4,0.2-0.7,0.6-1,1v7.2h-1.7V0.3h1.7C14.1,0.3,14.1,6,14.1,6z"/>
								<path id="Fill-6" d="M24.2,9.7c0,1.1,0.2,1.9,0.7,2.6s1.1,1,2,1s1.6-0.3,2-1c0.5-0.7,0.7-1.5,0.7-2.6V9.5
									c0-1.1-0.2-1.9-0.7-2.6s-1.1-1-2-1s-1.6,0.3-2,1s-0.7,1.6-0.7,2.6V9.7z M22.5,9.5c0-1.5,0.4-2.7,1.2-3.6
									c0.8-0.9,1.8-1.4,3.2-1.4c1.4,0,2.5,0.5,3.2,1.4c0.8,0.9,1.2,2.1,1.2,3.6v0.2c0,1.5-0.4,2.7-1.2,3.6
									c-0.8,0.9-1.8,1.4-3.2,1.4c-1.4,0-2.5-0.5-3.2-1.4c-0.8-0.9-1.2-2.1-1.2-3.6V9.5z"/>
								<path id="Fill-8" d="M35,4.6l0.1,1.5l0,0c0.3-0.5,0.7-0.9,1.2-1.2s1.1-0.4,1.7-0.4c1.1,0,1.9,0.3,2.5,0.9
									C41,6,41.3,6.9,41.3,8.3v6.2h-1.7V8.3c0-0.9-0.2-1.5-0.5-1.9s-0.9-0.5-1.6-0.5c-0.5,0-1,0.1-1.4,0.4s-0.7,0.6-1,1.1v7.1
									h-1.7V4.6H35z"/>
								<path id="Fill-10" d="M47.7,5.8c-0.6,0-1.2,0.3-1.6,0.8c-0.4,0.5-0.7,1.2-0.8,2H50V8.4c0-0.7-0.2-1.3-0.6-1.8
									C49.1,6.1,48.5,5.8,47.7,5.8 M48,14.7c-1.4,0-2.5-0.4-3.3-1.3c-0.8-0.9-1.2-2.1-1.2-3.6V9.4c0-1.4,0.4-2.6,1.2-3.5
									s1.8-1.4,3-1.4c1.3,0,2.3,0.4,3,1.2s1,1.9,1,3.2V10h-6.5c0,1,0.3,1.8,0.7,2.4c0.5,0.6,1.1,0.9,2,0.9c0.6,0,1.1-0.1,1.6-0.3
									c0.4-0.2,0.8-0.4,1.2-0.7l0.7,1.1C51,13.8,50.6,14,50,14.3C49.5,14.6,48.8,14.7,48,14.7"/>
								<path id="Fill-12" d="M55.7,7.8H59c0.9,0,1.6-0.2,2.1-0.7c0.4-0.5,0.7-1.1,0.7-1.9s-0.2-1.4-0.7-1.9C60.6,2.9,60,2.6,59,2.6
									h-3.3V7.8z M55.7,9.2v5.3H54V1.2h5c1.4,0,2.5,0.4,3.3,1.1s1.1,1.7,1.1,2.9S63,7.4,62.3,8.1c-0.8,0.7-1.9,1.1-3.3,1.1
									C59,9.2,55.7,9.2,55.7,9.2z"/>
								<path id="Fill-14" d="M69.2,5.8c-0.6,0-1.2,0.3-1.6,0.8s-0.7,1.2-0.8,2h4.8V8.4c0-0.7-0.2-1.3-0.6-1.8
									C70.5,6.1,69.9,5.8,69.2,5.8 M69.4,14.7c-1.4,0-2.5-0.4-3.3-1.3c-0.8-0.9-1.2-2.1-1.2-3.6V9.4c0-1.4,0.4-2.6,1.2-3.5
									c0.8-0.9,1.8-1.4,3-1.4c1.3,0,2.3,0.4,3,1.2s1,1.9,1,3.2V10h-6.5c0,1,0.3,1.8,0.7,2.4c0.5,0.6,1.1,0.9,2,0.9
									c0.6,0,1.1-0.1,1.6-0.3c0.4-0.2,0.8-0.4,1.2-0.7l0.7,1.1c-0.4,0.4-0.8,0.6-1.4,0.9C71,14.6,70.3,14.7,69.4,14.7"/>
							</g>
							<g id="Group-2" transform="translate(0.000000, 20.507066)">
								<polygon id="Fill-20" points="0.5,4.1 1.2,4.1 1.2,0.5 0.5,0.5 								"/>
								<polygon id="Fill-22" points="5.8,4.1 5.1,4.1 3.4,1.5 3.4,4.1 2.8,4.1 2.8,0.5 3.4,0.5 5.1,3.1 5.1,0.5 5.8,0.5 								
									"/>
								<path id="Fill-23" d="M8,1v2.6h0.4c0.2,0,0.3,0,0.5-0.1C9,3.4,9.2,3.4,9.2,3.3c0.1-0.1,0.2-0.2,0.2-0.4s0.1-0.3,0.1-0.5V2.2
									c0-0.4-0.1-0.7-0.3-0.9C9.1,1.1,8.8,1,8.5,1H8z M7.4,4.1V0.5h1.1c0.3,0,0.5,0,0.7,0.1S9.6,0.8,9.7,1
									c0.2,0.2,0.3,0.3,0.4,0.5c0.1,0.2,0.1,0.4,0.1,0.7v0.2c0,0.3,0,0.5-0.1,0.7C10,3.3,9.9,3.5,9.7,3.6C9.6,3.8,9.4,3.9,9.2,4
									S8.7,4.1,8.5,4.1H7.4z"/>
								<polygon id="Fill-24" points="11.7,4.1 12.4,4.1 12.4,0.5 11.7,0.5 								"/>
								<path id="Fill-25" d="M14.8,2.8H16l-0.6-1.5L14.8,2.8z M16.1,3.3h-1.5l-0.3,0.8h-0.7L15,0.5h0.6L17,4.1h-0.7L16.1,3.3z"/>
								<polygon id="Fill-26" points="18.4,0.6 18.3,1.6 17.9,1.6 17.9,0.3 18.4,0.3 								"/>
								<path id="Fill-27" d="M21.7,3.2c0-0.1,0-0.1,0-0.2c0-0.1-0.1-0.1-0.1-0.2c-0.1,0-0.1-0.1-0.2-0.1S21.2,2.6,21,2.6
									c-0.2-0.1-0.4-0.1-0.5-0.2c-0.2-0.1-0.3-0.1-0.4-0.2C20,2.1,19.9,2,19.8,1.9s-0.1-0.2-0.1-0.4c0-0.1,0-0.3,0.1-0.4
									s0.2-0.2,0.3-0.3s0.3-0.2,0.4-0.2c0.2,0,0.4-0.1,0.6-0.1s0.4,0,0.6,0.1s0.3,0.1,0.4,0.2s0.2,0.2,0.3,0.4
									c0.1,0.1,0.1,0.3,0.1,0.4h-0.7c0-0.1,0-0.2,0-0.2c0-0.1-0.1-0.1-0.1-0.2C21.5,1.1,21.4,1,21.3,1S21.1,1,21,1s-0.2,0-0.3,0
									c-0.1,0-0.2,0.1-0.2,0.1c-0.1,0-0.1,0.1-0.1,0.2s0,0.1,0,0.2s0.1,0.2,0.2,0.3C20.7,1.9,20.9,2,21.1,2
									c0.2,0.1,0.4,0.1,0.6,0.2c0.2,0.1,0.3,0.2,0.4,0.2c0.1,0.1,0.2,0.2,0.2,0.3c0.1,0.1,0.1,0.2,0.1,0.4s0,0.3-0.1,0.4
									c-0.1,0.1-0.2,0.2-0.3,0.3C21.9,4,21.8,4,21.6,4.1c-0.2,0-0.4,0.1-0.6,0.1s-0.4,0-0.5-0.1C20.3,4,20.1,4,20,3.9
									s-0.3-0.2-0.3-0.4c-0.1-0.1-0.1-0.3-0.1-0.5h0.7c0,0.1,0,0.2,0.1,0.3c0,0.1,0.1,0.1,0.2,0.2c0.1,0.1,0.2,0.1,0.3,0.1
									c0.1,0,0.2,0,0.3,0c0.2,0,0.4,0,0.5-0.1C21.7,3.4,21.7,3.3,21.7,3.2"/>
								<path id="Fill-28" d="M26.5,2.3h0.8c0.1,0,0.2,0,0.3,0c0.1,0,0.2-0.1,0.2-0.1C28,2,28,2,28,1.9s0-0.2,0-0.2
									c0-0.1,0-0.2,0-0.2c0-0.1-0.1-0.1-0.1-0.2c-0.1-0.1-0.1-0.1-0.2-0.1C27.6,1,27.5,1,27.3,1h-0.8V2.3z M26.5,2.8v1.3h-0.7V0.5
									h1.5c0.2,0,0.4,0,0.6,0.1s0.3,0.1,0.4,0.2s0.2,0.2,0.3,0.4s0.1,0.3,0.1,0.5s0,0.3-0.1,0.5c-0.1,0.1-0.2,0.3-0.3,0.4
									c-0.1,0.1-0.3,0.2-0.4,0.2c-0.2,0.1-0.4,0.1-0.6,0.1h-0.8V2.8z"/>
								<path id="Fill-29" d="M30.5,2.8h1.1L31,1.3L30.5,2.8z M31.8,3.3h-1.5L30,4.1h-0.7l1.4-3.6h0.6l1.4,3.6H32L31.8,3.3z"/>
								<polygon id="Fill-30" points="34.8,2.2 35.7,0.5 36.5,0.5 35.2,2.8 35.2,4.1 34.5,4.1 34.5,2.8 33.2,0.5 34,0.5 								"/>
								<polygon id="Fill-31" points="38.5,0.5 39.6,3.3 40.7,0.5 41.6,0.5 41.6,4.1 40.9,4.1 40.9,2.9 41,1.3 39.8,4.1 39.4,4.1 
									38.2,1.3 38.3,2.9 38.3,4.1 37.6,4.1 37.6,0.5 								"/>
								<polygon id="Fill-32" points="45.4,2.5 43.8,2.5 43.8,3.6 45.6,3.6 45.6,4.1 43.1,4.1 43.1,0.5 45.6,0.5 45.6,1 43.8,1 
									43.8,2 45.4,2 								"/>
								<polygon id="Fill-33" points="50,4.1 49.3,4.1 47.6,1.5 47.6,4.1 47,4.1 47,0.5 47.6,0.5 49.3,3.1 49.3,0.5 50,0.5 								
									"/>
								<polygon id="Fill-34" points="54.3,1 53.1,1 53.1,4.1 52.4,4.1 52.4,1 51.2,1 51.2,0.5 54.3,0.5 								"/>
								<path id="Fill-35" d="M57.5,3.2c0-0.1,0-0.1,0-0.2c0-0.1-0.1-0.1-0.1-0.2c-0.1,0-0.1-0.1-0.2-0.1c-0.1,0-0.2-0.1-0.4-0.1
									c-0.2-0.1-0.4-0.1-0.5-0.2c-0.2-0.1-0.3-0.1-0.4-0.2c-0.1-0.1-0.2-0.2-0.3-0.3c-0.1-0.1-0.1-0.2-0.1-0.4
									c0-0.1,0-0.3,0.1-0.4c0.1-0.1,0.2-0.2,0.3-0.3s0.3-0.2,0.4-0.2c0.2,0,0.4-0.1,0.6-0.1c0.2,0,0.4,0,0.6,0.1
									c0.2,0.1,0.3,0.1,0.4,0.2c0,0.1,0.1,0.2,0.2,0.3s0.1,0.3,0.1,0.4h-0.7c0-0.1,0-0.2,0-0.2c0-0.1-0.1-0.1-0.1-0.2
									c-0.1,0-0.2-0.1-0.3-0.1s-0.2,0-0.3,0s-0.2,0-0.3,0s-0.2,0.1-0.2,0.1c-0.1,0-0.1,0.1-0.1,0.2s0,0.1,0,0.2s0.1,0.2,0.2,0.3
									c0,0.1,0.2,0.2,0.5,0.2c0.2,0.1,0.4,0.1,0.6,0.2c0.2,0.1,0.3,0.2,0.4,0.2c0.1,0.1,0.2,0.2,0.2,0.3c0.1,0.1,0.1,0.2,0.1,0.4
									s0,0.3-0.1,0.4c-0.1,0.1-0.2,0.2-0.3,0.3C57.7,4,57.5,4,57.4,4.1c-0.2,0-0.4,0.1-0.6,0.1c-0.2,0-0.4,0-0.5-0.1
									c-0.2,0-0.3-0.1-0.5-0.2c-0.1-0.1-0.3-0.2-0.3-0.4c-0.1-0.1-0.1-0.3-0.1-0.5H56c0,0.1,0,0.2,0.1,0.3c0,0.1,0.1,0.1,0.2,0.2
									c0.1,0.1,0.2,0.1,0.3,0.1s0.2,0,0.3,0c0.2,0,0.4,0,0.5-0.1C57.4,3.4,57.5,3.3,57.5,3.2"/>
								<path id="Fill-36" d="M62.5,2.8h1.1L63,1.3L62.5,2.8z M63.8,3.3h-1.5L62,4.1h-0.7l1.4-3.6h0.6l1.4,3.6H64L63.8,3.3z"/>
								<path id="Fill-37" d="M66.7,2.3h0.8c0.1,0,0.2,0,0.3,0c0.1,0,0.2-0.1,0.2-0.1C68.1,2,68.1,2,68.1,1.9s0-0.2,0-0.2
									c0-0.1,0-0.2,0-0.2c0-0.1-0.1-0.1-0.1-0.2c-0.1-0.1-0.1-0.1-0.2-0.1C67.7,1,67.6,1,67.5,1h-0.8V2.3z M66.7,2.8v1.3H66V0.5
									h1.5c0.2,0,0.4,0,0.6,0.1s0.3,0.1,0.4,0.2s0.2,0.2,0.3,0.4c0.1,0.1,0.1,0.3,0.1,0.5s0,0.3-0.1,0.5c-0.1,0.1-0.2,0.3-0.3,0.4
									c-0.1,0.1-0.3,0.2-0.4,0.2c-0.2,0.1-0.4,0.1-0.6,0.1h-0.8V2.8z"/>
								<path id="Fill-38" d="M70.9,2.3h0.8c0.1,0,0.2,0,0.3,0c0.1,0,0.2-0.1,0.2-0.1C72.3,2,72.3,2,72.4,1.9c0-0.1,0-0.2,0-0.2
									c0-0.1,0-0.2,0-0.2c0-0.1-0.1-0.1-0.1-0.2c-0.1-0.1-0.1-0.1-0.2-0.1C71.9,1,71.8,1,71.7,1h-0.8C70.9,1,70.9,2.3,70.9,2.3z
									 M70.9,2.8v1.3h-0.7V0.5h1.5c0.2,0,0.4,0,0.6,0.1s0.3,0.1,0.4,0.2S72.9,1,73,1.2c0.1,0.1,0.1,0.3,0.1,0.5s0,0.3-0.1,0.5
									c-0.1,0.1-0.2,0.3-0.3,0.4c-0.1,0.1-0.3,0.2-0.4,0.2c-0.2,0.1-0.4,0.1-0.6,0.1h-0.8C70.9,2.9,70.9,2.8,70.9,2.8z"/>
							</g>
						</g>
					</g>
				</g>
			</g>
		</g>
	</g>
</g>
<g>
	<g>
		<g>
			<g>
				<g>
					<path class="st2" d="M16.6,7.4C7.4,7.4,0,14.9,0,24c0,9.1,7.4,16.6,16.6,16.6S33.1,33.1,33.1,24C33.1,14.9,25.7,7.4,16.6,7.4z"
						/>
				</g>
			</g>
			<g>
				<g>
					<g>
						<path class="st3" d="M23.4,18.9h-3l-1.6-2.7l-2.5-4.3c-0.1-0.1-0.2-0.2-0.4-0.2h-2.1c-0.3,0-0.5,0.3-0.4,0.6l4.9,6.6H9.7
							c-0.2,0-0.4,0.2-0.4,0.4v1.9c0,0.2,0.2,0.4,0.4,0.4h2v5c0,0.8,0.2,1.5,0.5,2.2c0.8,1.6,2.5,2.7,4.4,2.7c0.8,0,1.5-0.2,2.2-0.5
							v4c0,0.2,0.2,0.4,0.4,0.4H21c0.2,0,0.4-0.2,0.4-0.4V21.6h1.9c0.2,0,0.4-0.2,0.4-0.4v-1.9C23.8,19.1,23.6,18.9,23.4,18.9z
							 M18.8,26.6c0,1.2-1,2.2-2.2,2.2c-1.2,0-2.2-1-2.2-2.2v-5h4.4V26.6z"/>
					</g>
				</g>
			</g>
		</g>
	</g>
	<g>
		<g>
			<path class="st2" d="M47.7,26.3v6.3h-2.1V16.5h6c1.8,0,3.1,0.5,4.1,1.4c1,0.9,1.5,2.1,1.5,3.6c0,1.6-0.5,2.8-1.5,3.6
				c-1,0.8-2.4,1.3-4.2,1.3H47.7z M47.7,24.6h3.8c1.1,0,2-0.3,2.6-0.8c0.6-0.5,0.9-1.3,0.9-2.3c0-1-0.3-1.7-0.9-2.3
				c-0.6-0.6-1.4-0.9-2.5-0.9h-3.9V24.6z"/>
		</g>
		<g>
			<path class="st2" d="M61.3,22.1c0.9-1.1,2.1-1.7,3.5-1.7c2.5,0,3.8,1.4,3.8,4.3v7.9h-2v-7.9c0-0.9-0.2-1.5-0.6-1.9
				c-0.4-0.4-1-0.6-1.8-0.6c-0.7,0-1.2,0.2-1.8,0.5c-0.5,0.4-0.9,0.8-1.2,1.4v8.5h-2v-17h2V22.1z"/>
		</g>
		<g>
			<path class="st2" d="M71,26.3c0-1.2,0.2-2.2,0.7-3.2c0.5-0.9,1.1-1.7,1.9-2.2c0.8-0.5,1.8-0.8,2.8-0.8c1.6,0,3,0.6,4,1.7
				c1,1.1,1.5,2.6,1.5,4.5v0.1c0,1.2-0.2,2.2-0.7,3.1c-0.4,0.9-1.1,1.6-1.9,2.2c-0.8,0.5-1.8,0.8-2.9,0.8c-1.6,0-2.9-0.6-4-1.7
				c-1-1.1-1.5-2.6-1.5-4.5V26.3z M73,26.6c0,1.3,0.3,2.4,0.9,3.2c0.6,0.8,1.4,1.2,2.5,1.2c1,0,1.9-0.4,2.5-1.2
				c0.6-0.8,0.9-2,0.9-3.4c0-1.3-0.3-2.4-0.9-3.2c-0.6-0.8-1.5-1.2-2.5-1.2c-1,0-1.8,0.4-2.4,1.2C73.3,23.9,73,25.1,73,26.6z"/>
		</g>
		<g>
			<path class="st2" d="M86.2,20.7l0.1,1.5c0.9-1.2,2.1-1.7,3.6-1.7c2.5,0,3.8,1.4,3.8,4.3v7.9h-2v-7.9c0-0.9-0.2-1.5-0.6-1.9
				c-0.4-0.4-1-0.6-1.8-0.6c-0.7,0-1.2,0.2-1.8,0.5c-0.5,0.4-0.9,0.8-1.2,1.4v8.5h-2v-12H86.2z"/>
		</g>
		<g>
			<path class="st2" d="M101.5,32.7c-1.6,0-2.9-0.5-4-1.6c-1-1.1-1.5-2.5-1.5-4.3v-0.4c0-1.2,0.2-2.3,0.7-3.2
				c0.5-0.9,1.1-1.7,1.9-2.2c0.8-0.5,1.7-0.8,2.7-0.8c1.6,0,2.8,0.5,3.6,1.5c0.9,1,1.3,2.5,1.3,4.4V27h-8.1c0,1.2,0.4,2.1,1,2.9
				c0.7,0.7,1.5,1.1,2.5,1.1c0.7,0,1.3-0.1,1.8-0.4c0.5-0.3,0.9-0.7,1.3-1.2l1.3,1C105,31.9,103.5,32.7,101.5,32.7z M101.3,21.9
				c-0.8,0-1.5,0.3-2.1,0.9c-0.6,0.6-0.9,1.4-1,2.5h6v-0.2c-0.1-1-0.3-1.8-0.8-2.4C102.8,22.2,102.1,21.9,101.3,21.9z"/>
		</g>
		<g>
			<path class="st2" d="M110.9,26.3v6.3h-2.1V16.5h6c1.8,0,3.1,0.5,4.1,1.4c1,0.9,1.5,2.1,1.5,3.6c0,1.6-0.5,2.8-1.5,3.6
				c-1,0.8-2.4,1.3-4.2,1.3H110.9z M110.9,24.6h3.8c1.1,0,2-0.3,2.6-0.8c0.6-0.5,0.9-1.3,0.9-2.3c0-1-0.3-1.7-0.9-2.3
				c-0.6-0.6-1.4-0.9-2.5-0.9h-3.9V24.6z"/>
		</g>
		<g>
			<path class="st2" d="M127.3,32.7c-1.6,0-2.9-0.5-4-1.6c-1-1.1-1.5-2.5-1.5-4.3v-0.4c0-1.2,0.2-2.3,0.7-3.2
				c0.5-0.9,1.1-1.7,1.9-2.2c0.8-0.5,1.7-0.8,2.7-0.8c1.6,0,2.8,0.5,3.6,1.5c0.9,1,1.3,2.5,1.3,4.4V27h-8.1c0,1.2,0.4,2.1,1,2.9
				c0.7,0.7,1.5,1.1,2.5,1.1c0.7,0,1.3-0.1,1.8-0.4c0.5-0.3,0.9-0.7,1.3-1.2l1.3,1C130.8,31.9,129.3,32.7,127.3,32.7z M127.1,21.9
				c-0.8,0-1.5,0.3-2.1,0.9c-0.6,0.6-0.9,1.4-1,2.5h6v-0.2c-0.1-1-0.3-1.8-0.8-2.4C128.6,22.2,127.9,21.9,127.1,21.9z"/>
		</g>
	</g>
</g>
</svg>
